<?xml version="1.0" encoding="UTF-8" standalone="no"?><!DOCTYPE svg PUBLIC "-//W3C//DTD SVG 1.1//EN" "http://www.w3.org/Graphics/SVG/1.1/DTD/svg11.dtd"><svg width="100%" height="100%" viewBox="0 0 301 333" version="1.1" xmlns="http://www.w3.org/2000/svg" xmlns:xlink="http://www.w3.org/1999/xlink" xml:space="preserve" xmlns:serif="http://www.serif.com/" style="fill-rule:evenodd;clip-rule:evenodd;stroke-linejoin:round;stroke-miterlimit:2;"><path d="M142.622,155.884c-0,-1.333 -0.755,-2.177 -2.177,-2.177l-9.508,-0c-5.11,-0 -7.287,2.177 -7.287,7.286l0,10.219c0,2 -0.888,2.933 -2.977,2.933l-12.351,-0c-1.333,-0 -2.177,0.844 -2.177,2.221c-0,1.289 0.844,2.177 2.177,2.177l12.396,0c5.065,0 7.375,-2.177 7.375,-7.286l0,-10.219c0,-2.177 0.8,-2.933 2.933,-2.933l9.508,0c1.333,0 2.088,-0.844 2.088,-2.221Z" style="fill-rule:nonzero;"/><path d="M66.691,153.707l-21.904,-0c-4.399,-0 -7.287,2.932 -7.287,7.286l0,10.219c0,4.399 2.932,7.287 7.287,7.287l17.505,-0c1.466,-0 2.932,-1.466 2.932,-2.933l0,-5.109c0,-1.244 -0.933,-2.177 -2.132,-2.177c-1.378,-0 -2.222,0.844 -2.222,2.177l0,3.643l-16.083,0c-1.467,0 -2.933,-1.466 -2.933,-2.932l0,-10.219c0,-1.466 1.466,-2.933 2.933,-2.933l21.904,0c1.466,0 2.932,1.467 2.932,2.933l0,15.328c0,1.155 0.889,2.177 2.177,2.177c1.244,0 2.177,-0.71 2.177,-2.177l0,-15.328c0.045,-4.31 -2.888,-7.242 -7.286,-7.242Z" style="fill-rule:nonzero;"/><path d="M147.021,171.257c-0,5.109 2.132,7.286 7.286,7.286l27.014,0c1.333,0 2.177,-0.844 2.177,-2.221c-0,-1.289 -0.844,-2.177 -2.177,-2.177l-27.058,-0c-2.177,-0.045 -2.933,-0.8 -2.933,-2.933l0,-10.219c0,-2.177 0.8,-2.932 2.933,-2.932l21.904,-0c2.044,-0 2.932,0.755 2.932,2.932c0,2.177 -0.755,2.933 -2.932,2.933l-18.217,-0c-1.466,-0 -2.177,0.755 -2.177,2.177c0,1.422 0.756,2.177 2.177,2.177l18.217,-0c5.154,-0 7.286,-2.177 7.286,-7.287c0,-5.109 -2.177,-7.286 -7.286,-7.286l-21.904,-0c-5.243,-0 -7.287,2.177 -7.287,7.286l0,10.264l0.045,-0Z" style="fill-rule:nonzero;"/><path d="M187.896,171.257c0,5.109 2.133,7.286 7.287,7.286l24.525,0c1.333,0 2.177,-0.844 2.177,-2.221c0,-1.289 -0.755,-2.177 -2.177,-2.177l-24.57,-0c-2.177,-0.045 -2.932,-0.8 -2.932,-2.933l0,-10.219c0,-2.132 0.755,-2.888 2.932,-2.932l24.526,-0c1.333,-0 2.177,-0.844 2.177,-2.177c0,-1.333 -0.844,-2.177 -2.177,-2.177l-24.526,-0c-5.153,-0 -7.286,2.177 -7.286,7.286l0.044,10.264Z" style="fill-rule:nonzero;"/><path d="M226.773,171.212c-0,5.11 2.132,7.331 7.286,7.331l21.904,0c5.154,0 7.287,-2.221 7.287,-7.331l-0,-10.219c-0,-5.109 -2.133,-7.286 -7.287,-7.286l-21.904,-0c-5.154,-0 -7.286,2.177 -7.286,7.286l-0,10.219Zm7.286,2.933c-2.177,-0.045 -2.932,-0.845 -2.932,-2.933l-0,-10.219c-0,-2.132 0.711,-2.843 2.932,-2.888l21.904,0c2.178,0.045 2.933,0.8 2.933,2.933l-0,10.174c-0,2.133 -0.755,2.933 -2.933,2.977l-21.904,-0.044Z" style="fill-rule:nonzero;"/><path d="M114.897,155.884c0,-1.333 -0.755,-2.177 -2.177,-2.177l-9.508,-0c-5.109,-0 -7.286,2.177 -7.286,7.286l-0,10.219c-0,2 -0.889,2.933 -2.977,2.933l-12.441,-0c-1.332,-0 -2.088,0.844 -2.088,2.221c0,1.289 0.8,2.177 2.088,2.177l12.441,0c5.065,0 7.375,-2.177 7.375,-7.286l0,-10.219c0,-2.177 0.8,-2.933 2.933,-2.933l9.508,0c1.377,0 2.132,-0.844 2.132,-2.221Z" style="fill-rule:nonzero;"/></svg>