<?xml version="1.0" encoding="UTF-8" standalone="no"?><!DOCTYPE svg PUBLIC "-//W3C//DTD SVG 1.1//EN" "http://www.w3.org/Graphics/SVG/1.1/DTD/svg11.dtd"><svg width="100%" height="100%" viewBox="0 0 301 333" version="1.1" xmlns="http://www.w3.org/2000/svg" xmlns:xlink="http://www.w3.org/1999/xlink" xml:space="preserve" xmlns:serif="http://www.serif.com/" style="fill-rule:evenodd;clip-rule:evenodd;stroke-linejoin:round;stroke-miterlimit:2;"><path d="M55.265,147.992c-10.746,-0 -18.928,8.181 -18.928,18.386c0,10.148 8.182,18.187 18.729,18.187c10.461,-0 18.728,-8.182 18.728,-18.187c-0.028,-10.006 -7.981,-18.386 -18.529,-18.386Zm-0.285,29.674c-4.874,-0 -9.378,-4.675 -9.378,-11.089c-0,-6.755 4.133,-11.43 9.663,-11.43c4.989,-0 9.179,4.675 9.179,11.231c-0,6.756 -3.791,11.288 -9.464,11.288Z" style="fill-rule:nonzero;"/><path d="M92.893,147.992c-4.789,-0 -10.376,1.225 -15.507,3.848l0,43.186l8.837,-0l0,-13.511c2.565,1.681 5.9,2.964 8.608,2.964c10.804,-0 16.819,-8.78 16.819,-18.301c0.028,-12.172 -9.036,-18.186 -18.757,-18.186Zm1.283,29.19c-2.908,-0 -5.388,-0.599 -7.953,-3.906l0,-16.562c1.425,-0.883 3.962,-1.339 5.986,-1.339c6.357,-0 10.062,4.675 10.062,10.889c0,6.585 -3.705,10.918 -8.095,10.918Z" style="fill-rule:nonzero;"/><path d="M133.4,147.992c-10.747,-0 -18.928,8.181 -18.928,18.386c0,10.148 8.181,18.187 18.728,18.187c10.462,-0 18.729,-8.182 18.729,-18.187c0,-10.006 -7.982,-18.386 -18.529,-18.386Zm-0.257,29.674c-4.874,-0 -9.378,-4.675 -9.378,-11.089c-0,-6.755 4.133,-11.43 9.663,-11.43c4.989,-0 9.179,4.675 9.179,11.231c-0,6.756 -3.791,11.288 -9.464,11.288Z" style="fill-rule:nonzero;"/><path d="M174.676,147.992c-5.273,-0 -8.922,2.907 -10.918,4.532l-0,-3.107l-8.836,-0l-0,33.922l8.836,-0l-0,-23.717c1.141,-1.425 4.305,-3.849 7.355,-3.849c5.331,0 6.043,3.649 6.043,9.321l-0,18.244l8.837,0l-0,-22.919c-0,-8.637 -3.962,-12.428 -11.317,-12.428Z" style="fill-rule:nonzero;"/><path d="M207.515,147.992c-10.747,-0 -18.415,7.839 -18.415,18.386c-0,11.089 7.725,18.187 19.156,18.187c7.697,-0 12.999,-2.708 14.823,-4.248l-2.565,-6.157c-1.283,1.226 -4.989,3.25 -10.263,3.25c-5.416,-0 -11.202,-1.483 -12.172,-8.039l26.112,-0l-0,-3.136c-0,-9.72 -5.445,-18.243 -16.676,-18.243Zm-9.436,14.823c1.027,-4.846 4.533,-8.096 9.607,-8.096c4.789,-0 7.782,3.82 7.839,8.096l-17.446,-0Z" style="fill-rule:nonzero;"/><path d="M245.884,147.992c-10.747,-0 -18.928,8.181 -18.928,18.386c-0,10.148 8.181,18.187 18.728,18.187c10.462,-0 18.729,-8.182 18.729,-18.187c-0.029,-10.006 -8.011,-18.386 -18.529,-18.386Zm-0.285,29.674c-4.875,-0 -9.407,-4.675 -9.407,-11.089c-0,-6.755 4.133,-11.43 9.663,-11.43c4.989,-0 9.179,4.675 9.179,11.231c0.029,6.756 -3.763,11.288 -9.435,11.288Z" style="fill-rule:nonzero;"/></svg>