<?xml version="1.0" encoding="UTF-8" standalone="no"?><!DOCTYPE svg PUBLIC "-//W3C//DTD SVG 1.1//EN" "http://www.w3.org/Graphics/SVG/1.1/DTD/svg11.dtd"><svg width="100%" height="100%" viewBox="0 0 900 996" version="1.1" xmlns="http://www.w3.org/2000/svg" xmlns:xlink="http://www.w3.org/1999/xlink" xml:space="preserve" xmlns:serif="http://www.serif.com/" style="fill-rule:evenodd;clip-rule:evenodd;stroke-linejoin:round;stroke-miterlimit:2;"><path id="path51" d="M447.688,307.722c23.254,0 42.389,-19.135 42.389,-42.388c-0,-23.254 -19.135,-42.389 -42.389,-42.389c-23.253,0 -42.388,19.135 -42.388,42.389c0,0.021 0,0.041 0,0.062c0,23.22 19.107,42.326 42.326,42.326c0.021,0 0.042,0 0.062,0Z" style="fill:#e42229;fill-rule:nonzero;"/><path id="path53" d="M447.63,321.161c-50.391,-0 -93.787,11.504 -117.419,27.572c-11.595,7.128 -18.339,20.117 -17.499,33.702l0,150.426c-0.653,9.906 1.77,19.777 6.936,28.256c7.17,12.088 17.276,22.173 29.38,29.318l0.879,0.561l-0,-178.364l1.001,0.623c30.867,11.359 63.581,16.871 96.466,16.252l0.501,-0.183c56.267,0 104.342,-13.942 124.66,-33.323c6.224,-5.155 10.013,-12.689 10.441,-20.759c-0.427,-8.087 -4.214,-15.64 -10.441,-20.819c-8.515,-7.466 -18.323,-13.313 -28.939,-17.254c-30.731,-11.194 -63.265,-16.621 -95.966,-16.009l0,0.001Zm-48.208,40.955l99.03,0c1.647,0.014 3.271,0.398 4.75,1.123c2.868,1.156 4.838,3.853 5.067,6.936c-0.008,1.15 -0.429,2.259 -1.184,3.126c-1.38,1.557 -3.365,2.448 -5.446,2.442l-105.587,0c-2.078,0.042 -4.08,-0.797 -5.507,-2.308c-0.729,-0.882 -1.146,-1.982 -1.185,-3.126c0.252,-3.181 2.327,-5.942 5.312,-7.07c1.479,-0.725 3.102,-1.109 4.75,-1.123Zm172.112,55.767c-1.169,0.015 -2.321,0.291 -3.37,0.806c-22.979,12.453 -48.124,20.411 -74.084,23.445c-6.531,0.939 -11.391,6.663 -11.258,13.261l0,144.54c0,0 0,0.001 0,0.001c0,5.968 4.911,10.879 10.878,10.879c0.001,-0 0.001,-0 0.002,-0c0.746,0.092 1.501,0.092 2.247,-0c21.06,-4.84 40.859,-14.088 58.087,-27.133c13.817,-11.566 25.008,-27.63 25.008,-46.511l-0.063,-112.096c-0.164,-3.977 -3.467,-7.167 -7.448,-7.192l0.001,0Zm-205.997,14.507l-0,168.424l0.378,0c13.524,5.994 27.772,10.198 42.384,12.504l0.684,-0l-0,-85.903c8.415,0.131 15.266,7.091 15.263,15.507l0,46.634c-0.006,8.809 1.54,17.552 4.567,25.826l0,0.378l0.366,0c3.251,0.376 8.948,0.562 15.325,0.562c8.644,0.08 17.284,-0.36 25.875,-1.319l0.696,0l-0,-0.684c-2.512,-7.149 -3.76,-14.682 -3.688,-22.26l0,-43.007c-0.098,-12.987 -10.774,-23.636 -23.762,-23.701l-0,-4.005c13.431,-1.212 23.893,-12.513 24.068,-25.997l-0,-30.271c-0.093,-6.771 0.749,-13.522 2.503,-20.062l-0,-0.818l-0.879,-0c-4.064,-0 -10.061,0.439 -16.375,0.439c-9.441,0 -19.569,-0.304 -25.008,-0.867l-0.501,0l0,0.501c-2.261,6.939 -3.359,14.205 -3.248,21.503l0,34.325c-0.036,8.366 -6.838,15.271 -15.202,15.434l-0,-73.643l-0.562,-0c-14.288,-1.689 -28.377,-4.768 -42.066,-9.195l-0.818,-0.305Zm169.78,22.553c2.678,0.081 5.06,1.764 6.032,4.262c0.065,0.478 0.065,0.962 -0,1.44l0.122,0.44l-0,100.532c-0.207,2.881 -1.827,5.481 -4.323,6.936c-2.826,2.665 -7.297,2.665 -10.123,-0c-0.535,-0.788 -0.778,-1.739 -0.684,-2.687l0,-104.341c0.394,-3.108 2.742,-5.634 5.813,-6.252c0.82,-0.195 1.66,-0.301 2.503,-0.318c0.219,-0.015 0.439,-0.019 0.659,-0.012l0.001,0Z" style="fill:url(#_Radial1);fill-rule:nonzero;"/><path id="path59" d="M381.728,699.966l0,71.214l7.754,0l0,-25.753c0,0 14.005,17.631 17.694,21.882c2.409,2.621 5.888,4.002 9.439,3.749c1.094,0.011 2.185,-0.116 3.248,-0.378l-16.253,-18.756c-2.009,-3.032 -5.175,-5.112 -8.755,-5.752l-0,-1.685c2.126,0 5.259,-2.689 8.01,-5.69l14.812,-16.753c-0.914,-0.091 -1.834,-0.091 -2.747,-0c-3.708,-0.025 -7.241,1.6 -9.635,4.432l-15.813,18.133l0,-44.643l-7.754,0Zm235.133,0l-0,71.214l7.754,0l-0,-25.753c-0,0 14.005,17.631 17.693,21.882c2.399,2.636 5.886,4.021 9.439,3.749c1.078,0.012 2.154,-0.115 3.199,-0.378l-16.264,-18.756c-1.998,-3.01 -5.132,-5.086 -8.682,-5.752l-0,-1.685c2.063,0 5.186,-2.689 7.937,-5.69l14.811,-16.753c-0.893,-0.089 -1.793,-0.089 -2.686,-0c-3.725,-0.04 -7.279,1.587 -9.683,4.432l-15.764,18.133l-0,-44.643l-7.754,0Zm-63.582,0.318l-0,70.896l7.949,0l0,-70.896l-7.949,-0Zm112.743,1.697c-2.988,0.179 -5.349,2.687 -5.349,5.679c-0,3.121 2.568,5.69 5.689,5.69c0.009,-0 0.017,-0 0.026,-0c0.018,-0 0.036,-0 0.054,-0c3.053,-0 5.564,-2.512 5.564,-5.564c0,-0.043 0,-0.085 -0.001,-0.127c-0.002,-3.119 -2.57,-5.685 -5.689,-5.685c-0.098,-0 -0.196,0.002 -0.294,0.007l-0,0Zm-421.581,1.673c-5.064,0 -16.447,-0.867 -16.447,11.637l-0,46.072c-0,7.752 5.561,10.696 17.315,10.696c19.693,0 26.009,-9.26 26.009,-18.951c0.005,-9.166 -7.064,-16.918 -16.192,-17.755c7.003,-1.889 11.979,-8.184 12.199,-15.434c-0,-8.69 -6.003,-16.265 -22.884,-16.265Zm228.698,0.073c-18.381,0 -16.631,9.441 -16.631,12.504l-0,54.949l8.437,0l0,-25.631c1.751,0.188 4.502,0.623 6.252,0.623c17.818,0 25.814,-8.942 25.814,-21.821c0,-11.441 -7.43,-20.624 -23.872,-20.624l-0,0Zm0.989,4.848c0.038,-0 0.076,-0.001 0.114,-0.001c7.751,0 14.13,6.379 14.13,14.13c-0,0.571 -0.035,1.142 -0.104,1.708c0,10.066 -5.128,16.888 -17.632,16.888c-1.865,-0.059 -3.724,-0.227 -5.569,-0.501l0,-24.385c0,-2.251 -0.749,-7.754 8.316,-7.754l0,-0.062c0.248,-0.015 0.496,-0.024 0.745,-0.025l-0,0.002Zm-229.503,0.025c10.128,-0 14.38,4.748 14.567,12.125c0,8.378 -6.69,13.127 -16.631,13.127l-6.252,0l0,-17.498c0,-7.19 4.064,-7.754 8.316,-7.754Zm103.878,12.418c-4.4,0.04 -8.748,0.961 -12.785,2.711c-2.359,0.87 -3.835,3.252 -3.566,5.752l0,41.7l7.937,-0l0,-39.075c0,-3.126 0.816,-6.692 9.757,-6.692c8.94,0 11.686,5.313 11.686,10.502l-0,35.265l7.753,-0l0,-35.632c0,-12.128 -10.88,-14.506 -19.195,-14.506c-0.529,-0.021 -1.058,-0.03 -1.587,-0.025l-0,0Zm173.833,0.025c-13.879,0 -21.259,12.255 -21.259,25.509c0,13.254 7.005,25.753 21.259,25.753c14.317,-0 21.382,-12.124 21.382,-25.753c-0,-13.629 -7.502,-25.509 -21.382,-25.509Zm-219.441,0.063c-11.191,-0 -21.943,11.436 -21.943,27.816c0,15.318 7.38,23.323 18.133,23.323c5.146,-0.226 9.849,-3.023 12.504,-7.436l0.684,-0l-0,2.246c0.375,3.126 1.744,4.067 3.932,4.067c0.979,0.09 1.964,0.09 2.943,-0l0.378,-40.076c0,-8.503 -11.129,-9.94 -16.631,-9.94l-0,-0Zm286.333,0.501c-9.253,-0 -16.558,5.066 -16.558,13.444c-0,14.692 26.375,12.5 26.375,24.629c-0.333,4.868 -4.566,8.625 -9.439,8.377c-3.976,-0.133 -7.525,-2.582 -9.06,-6.252c-1.243,-3.042 -4.29,-4.978 -7.571,-4.811c-0.666,-0.062 -1.337,-0.062 -2.003,-0c0,10.503 10.012,15.068 18.39,15.068c9.815,-0.188 17.254,-5.569 17.254,-14.384c-0,-15.693 -26.632,-13.062 -26.632,-24.19c0.067,-4.309 3.63,-7.817 7.939,-7.817c0.334,-0 0.668,0.021 0.999,0.063l0.684,-0c3.032,0.023 5.802,1.768 7.131,4.494c0.753,2.916 3.405,4.97 6.417,4.97c0.777,0 1.548,-0.137 2.277,-0.404c0,-9.377 -8.138,-13.187 -16.203,-13.187Zm73.155,0.622l-0,48.954l7.937,-0l-0,-48.954l-7.937,0Zm-140.047,3.383l-0.244,0.244c9.753,0 13.749,11.194 13.749,21.259c0,10.066 -3.686,20.124 -13.126,20.124c-9.441,-0 -13.261,-11.745 -13.261,-21.748c-0,-10.003 3.629,-19.879 12.882,-19.879l0,-0Zm-219.82,0.244c6.377,0 8.756,2.126 8.756,6.252l-0.122,28.073c-2.453,3.437 -6.357,5.56 -10.575,5.751c-6.502,0 -12.186,-4.939 -12.186,-18.756c-0,-15.067 7.751,-21.32 14.128,-21.32l-0.001,0Zm-66.024,12.504l6.252,0c13.504,0 19.704,4.816 19.892,14.506c-0,7.753 -5.253,14.006 -17.132,14.006c-6.565,0 -9.012,-1.566 -9.012,-6.63l0,-21.882Z" style="fill:#1d1d1b;fill-rule:nonzero;"/><defs><radialGradient id="_Radial1" cx="0" cy="0" r="1" gradientUnits="userSpaceOnUse" gradientTransform="matrix(291.894,0,0,291.894,444.872,320.144)"><stop offset="0" style="stop-color:#004a99;stop-opacity:1"/><stop offset="0.14" style="stop-color:#004793;stop-opacity:1"/><stop offset="0.32" style="stop-color:#003e83;stop-opacity:1"/><stop offset="0.53" style="stop-color:#002f68;stop-opacity:1"/><stop offset="0.75" style="stop-color:#001b42;stop-opacity:1"/><stop offset="0.99" style="stop-color:#000112;stop-opacity:1"/><stop offset="1" style="stop-color:#000010;stop-opacity:1"/></radialGradient></defs></svg>